<svg xmlns="http://www.w3.org/2000/svg" xmlns:xlink="http://www.w3.org/1999/xlink" aria-hidden="true" role="img" class="iconify iconify--logos" width="31.88" height="32" preserveAspectRatio="xMidYMid meet" viewBox="0 0 256 257"><defs><linearGradient id="IconifyId1813088f1" gradientUnits="userSpaceOnUse" x1="-.828%" y1="7.652%" x2="57.636%" y2="57.636%"><stop offset="0%" stop-color="#41D1DD"></stop><stop offset="100%" stop-color="#1EA7FD"></stop></linearGradient><linearGradient id="IconifyId1813088f2" gradientUnits="userSpaceOnUse" x1="43.376%" y1="2.242%" x2="84.314%" y2="84.314%"><stop offset="0%" stop-color="#FBD02E"></stop><stop offset="14.571428571428571%" stop-color="#FBD02E"></stop><stop offset="100%" stop-color="#F9A11B"></stop></linearGradient></defs><path d="M255.153 37.938L134.895 252.038c-2.855 4.97-10.39 4.972-13.248.003L1.255 37.941c-2.927-5.09 1.044-11.267 6.786-11.14l120.13 2.276a7.237 7.237 0 0 0 2.276 0l117.874-2.274c5.742-.128 9.713 6.049 6.787 11.14z" fill="url(#IconifyId1813088f1)"></path><path d="M185.532.812L100.85 15.866a3.424 3.424 0 0 0-2.79 3.099l-5.375 94.017c-.244 4.275 3.816 7.643 7.965 6.614l23.587-5.845c4.483-1.111 8.399 3.088 7.24 7.544l-6.903 26.495c-1.164 4.47 3.083 8.684 7.553 7.528l14.615-3.77c4.47-1.156 8.716 3.06 7.552 7.528l-7.552 28.838c-1.044 3.99 2.595 7.647 6.596 6.635l3.352-.849a3.424 3.424 0 0 1 4.17 4.17l-14.834 57.37c-1.632 6.314 6.495 9.968 10.194 4.576l1.724-2.515L208.932 6.266c1.645-6.32-6.5-10-10.2-4.578z" fill="url(#IconifyId1813088f2)"></path></svg>
